<?xml version="1.0" encoding="UTF-8"?>
<svg
        width="700pt" height="700pt"
        version="1.1"
        viewBox="0 0 700 550"
        xmlns="http://www.w3.org/2000/svg"
        xmlns:xlink="http://www.w3.org/1999/xlink"
        fill="#ee2238"
     >
 <g>
  <path d="m348.88 0c-154.02 0-278.88 124.86-278.88 278.88 0 154.02 124.86 278.88 278.88 278.88 154 0 278.89-124.86 278.89-278.88 0.003906-154.02-124.88-278.88-278.89-278.88zm39.234 310.45c-67.02 0-121.35-54.312-121.35-121.34 0-67.008 54.332-121.34 121.35-121.34 67.004 0 121.34 54.324 121.34 121.34 0 67.02-54.336 121.34-121.34 121.34z"/>
  <path d="m332.54 125.05c3.2773-6.5117 7.6992-12.051 13.281-16.613 5.582-4.5547 11.977-8.1133 19.18-10.672 7.1797-2.5586 14.539-4.0703 22.055-4.5469 11.352-0.71875 21.051 0.42578 29.133 3.4141 8.0625 2.9961 14.66 6.8281 19.789 11.496 5.0977 4.6641 8.8945 9.7812 11.336 15.32 2.457 5.5391 3.832 10.574 4.1172 15.113 0.57031 9.0781-1.1602 17.16-5.168 24.242-4.0273 7.0859-10.387 12.398-19.113 15.934l0.039062 0.52734c11.145 1.7539 19.945 6.4062 26.395 13.965 6.4297 7.582 10.008 17.125 10.734 28.637 0.60938 9.7812-0.80078 18.363-4.2852 25.77-3.4844 7.4102-8.2812 13.664-14.449 18.789-6.1641 5.1172-13.266 9.1211-21.336 12-8.0625 2.8711-16.352 4.582-24.898 5.1172-8.9141 0.56641-17.578 0.023438-26.008-1.6367-8.4336-1.6562-16.066-4.6406-22.902-8.9375-6.8438-4.3008-12.465-9.8945-16.844-16.812-4.3672-6.9062-6.8828-15.332-7.5078-25.289-0.73828-11.691 1.6406-21.656 7.1719-29.895s13.703-14.012 24.527-17.328l-0.003906-0.51953c-9.0625-1.875-16.078-6.082-21.039-12.605-4.9844-6.5195-7.75-14.312-8.3086-23.387-0.53125-8.2109 0.83594-15.566 4.1055-22.082zm39.391 40.746c5.8398 3.7539 12.516 5.3945 20.02 4.9102 7.8516-0.49219 14.273-2.957 19.254-7.3906 4.9883-4.4336 7.2188-10.586 6.7148-18.434-0.15234-2.4453-0.66016-5.0859-1.5586-7.9258-0.85547-2.832-2.4023-5.4922-4.5586-7.9844-2.1797-2.4922-5.1016-4.4961-8.8047-6.0195-3.6836-1.5195-8.4102-2.0938-14.164-1.7344-3.6719 0.23438-7.168 1.0234-10.504 2.3789-3.332 1.3477-6.2383 3.1523-8.7266 5.4102-2.4883 2.2578-4.3672 5.0078-5.6523 8.2422-1.293 3.2422-1.8086 6.9453-1.5352 11.137 0.5 7.8633 3.6758 13.672 9.5156 17.41zm-5.3359 73.551c1.9805 3.7305 4.5039 6.8555 7.5547 9.3867 3.0508 2.5273 6.6289 4.4062 10.734 5.6289 4.1094 1.2305 8.3477 1.7148 12.719 1.4336 4.5352-0.28516 8.6367-1.293 12.285-3.0195 3.6445-1.7148 6.8438-4.0273 9.5547-6.9102 2.7148-2.8945 4.7305-6.3047 6.0586-10.242 1.3281-3.9414 1.8438-8.1758 1.5625-12.723-0.28125-4.3555-1.3555-8.2773-3.2539-11.754-1.875-3.4727-4.3398-6.4297-7.3789-8.8633-3.0469-2.4375-6.4961-4.2266-10.348-5.3828-3.832-1.1641-7.9414-1.6055-12.297-1.332-9.0703 0.57031-16.598 3.543-22.566 8.9141-5.9688 5.3828-8.6523 12.773-8.0586 22.191 0.29688 4.7266 1.4297 8.9531 3.4336 12.672z"/>
 </g>
</svg>
